<svg id="Layer_2" data-name="Layer 2" xmlns="http://www.w3.org/2000/svg" viewBox="0 0 512 512"><defs><style>.cls-1{fill:#fff;}.cls-2{opacity:0.8;}</style></defs><title>logo</title><rect class="cls-1" x="0.5" y="0.5" width="511" height="511"/><rect class="cls-2" x="0.5" y="0.5" width="511" height="511"/><path class="cls-1" d="M382.45,314q-9.18-14.33-9.18-46.64l.74-33.79c0-5.87-.37-10-1.11-12.48s-2.08-3.67-4-3.67q-9.54,0-40.76,25t-62.8,59.49q-3.68,3.69-9.91,10.65A58.85,58.85,0,0,1,244,322.82q-5.15,3.31-9.54,3.31-6.61,0-12.49-5.14l-8.08-6.61c-3.43-2.94-5.14-6.36-5.14-10.29l1.47-6.61L227.11,249q16.15-37.45,19.1-47.38t-.74-9.18q-6.6.75-18.36,7t-14.69,12.12q-1.47,0-9.55,7.71a93.1,93.1,0,0,1-14,11.39q-6.61,9.56-32.32,34.52L139,282.06q-11,8.82-30.84,36-10.3,13.21-11.75,13.22-22.78,0-28.65-22-2.94-5.13-2.94-14,0-11.75,8.82-48.48Q80.21,221.85,81,216l3.67-14.69a111.5,111.5,0,0,1,6.61-22.77q5.13-13.23,17.63-41.87,7.33-20.55,7.35-30.84,0-9.54,6.61-15.06a22.37,22.37,0,0,1,14.69-5.51q10.28,0,17.62,8.08t7.35,21.3a63.07,63.07,0,0,1-5.88,25.71l-8.08,19.83Q142.64,171.9,133.47,198t-9.18,29c.48,1.47,2.2,1.11,5.14-1.1s6.35-5,10.28-8.44a143.51,143.51,0,0,1,15.42-13.22q22-20.57,52.52-39.67t46.64-24.23q9.54,0,14.32,2.57a45.13,45.13,0,0,1,10.65,8.81q5.87,6.26,8.81,9.18,6.62,6.62,6.61,19.1a41.27,41.27,0,0,1-1.47,9.55q-2.94,10.29-7.71,25t-7,21.3q5.12-4.41,18.36-15.43t24.24-20.56q36.71-28.65,58-28.65,15.42,0,26.44,16.16c4.41,4.41,7.09,8.94,8.08,13.59a95.6,95.6,0,0,1,1.47,18.73V238a145.83,145.83,0,0,1,.73,17.63q.72,5.88,1.84,22.77t3.3,19.09q3.67,4.41,25,8.08,13.23,2.2,13.23,11.75,0,6.62-9.55,13.23-9.56,5.88-23.51,5.87a64.81,64.81,0,0,1-24.23-4.4Q391.62,328.34,382.45,314Z"/><path class="cls-1" d="M112.11,423.11q-10.31,0-14.32-2.21c-2.7-1.47-5-4.15-7-8.08q-4.41-6.6-4.41-10.28c0-2.94,2.68-5.25,8.08-7s14.93-3.3,28.64-4.77q22-5.13,83-7.71t102.09-2.57q19.1,0,25.71,1.83t14.69,9.18q8.81,8.82,8.81,16.9c0,4.4-1.83,7.6-5.51,9.55s-8.69,2.45-15.05,1.46l-46.27,3.68q-24.25.72-71.62,2.2t-81.16,1.47A81.53,81.53,0,0,1,112.11,423.11Z"/></svg>